0
SECTION
2
HEADER
9
$DIMALTF
40
0.03937007874016
0
ENDSEC
0
SECTION
2
TABLES
0
ENDSEC
0
SECTION
2
ENTITIES
0
POLYLINE
8
ступица_кожух_1
66
1
70
8
71
3
0
VERTEX
8
ступица_кожух_1
10
18.000000
20
-122.800000
30
0.000000
70
32
0
VERTEX
8
ступица_кожух_1
10
18.000000
20
-85.784000
30
0.000000
70
32
0
VERTEX
8
ступица_кожух_1
10
18.000000
20
-56.700000
30
0.000000
70
32
0
SEQEND
0
POLYLINE
8
ступица_кожух_2
66
1
70
8
71
3
0
VERTEX
8
ступица_кожух_2
10
79.400000
20
-23.400000
30
0.000000
70
32
0
VERTEX
8
ступица_кожух_2
10
79.400000
20
-24.418108
30
0.000000
70
32
0
VERTEX
8
ступица_кожух_2
10
79.400000
20
-25.218050
30
0.000000
70
32
0
SEQEND
0
POLYLINE
8
ступица_кожух_3
66
1
70
8
71
3
0
VERTEX
8
ступица_кожух_3
10
69.800000
20
-35.600000
30
0.000000
70
32
0
VERTEX
8
ступица_кожух_3
10
69.800000
20
-14.992000
30
0.000000
70
32
0
VERTEX
8
ступица_кожух_3
10
69.800000
20
1.200000
30
0.000000
70
32
0
SEQEND
0
POLYLINE
8
ступица_кожух_4
66
1
70
8
71
3
0
VERTEX
8
ступица_кожух_4
10
76.200000
20
-23.400000
30
0.000000
70
32
0
VERTEX
8
ступица_кожух_4
10
77.992000
20
-23.400000
30
0.000000
70
32
0
VERTEX
8
ступица_кожух_4
10
79.400000
20
-23.400000
30
0.000000
70
32
0
SEQEND
0
POLYLINE
8
ступица_кожух_5
66
1
70
8
71
3
0
VERTEX
8
ступица_кожух_5
10
162.500000
20
-72.900000
30
0.000000
70
32
0
VERTEX
8
ступица_кожух_5
10
125.648969
20
-73.889700
30
0.000000
70
32
0
VERTEX
8
ступица_кожух_5
10
96.694587
20
-74.667321
30
0.000000
70
32
0
SEQEND
0
POLYLINE
8
ступица_кожух_6
66
1
70
8
71
37
0
VERTEX
8
ступица_кожух_6
10
76.800000
20
-103.975889
30
0.000000
70
32
0
VERTEX
8
ступица_кожух_6
10
76.816276
20
-103.159149
30
0.000000
70
32
0
VERTEX
8
ступица_кожух_6
10
76.866046
20
-102.331649
30
0.000000
70
32
0
VERTEX
8
ступица_кожух_6
10
76.950641
20
-101.495250
30
0.000000
70
32
0
VERTEX
8
ступица_кожух_6
10
77.071269
20
-100.651971
30
0.000000
70
32
0
VERTEX
8
ступица_кожух_6
10
77.228997
20
-99.803978
30
0.000000
70
32
0
VERTEX
8
ступица_кожух_6
10
77.424729
20
-98.953579
30
0.000000
70
32
0
VERTEX
8
ступица_кожух_6
10
77.644736
20
-98.151750
30
0.000000
70
32
0
VERTEX
8
ступица_кожух_6
10
77.899614
20
-97.352066
30
0.000000
70
32
0
VERTEX
8
ступица_кожух_6
10
78.189639
20
-96.556719
30
0.000000
70
32
0
VERTEX
8
ступица_кожух_6
10
78.514904
20
-95.767957
30
0.000000
70
32
0
VERTEX
8
ступица_кожух_6
10
78.875316
20
-94.988063
30
0.000000
70
32
0
VERTEX
8
ступица_кожух_6
10
79.270589
20
-94.219336
30
0.000000
70
32
0
VERTEX
8
ступица_кожух_6
10
79.700238
20
-93.464069
30
0.000000
70
32
0
VERTEX
8
ступица_кожух_6
10
80.163578
20
-92.724533
30
0.000000
70
32
0
VERTEX
8
ступица_кожух_6
10
80.659727
20
-92.002948
30
0.000000
70
32
0
VERTEX
8
ступица_кожух_6
10
81.187612
20
-91.301468
30
0.000000
70
32
0
VERTEX
8
ступица_кожух_6
10
81.735741
20
-90.634081
30
0.000000
70
32
0
VERTEX
8
ступица_кожух_6
10
82.311905
20
-89.989932
30
0.000000
70
32
0
VERTEX
8
ступица_кожух_6
10
82.914590
20
-89.370754
30
0.000000
70
32
0
VERTEX
8
ступица_кожух_6
10
83.542141
20
-88.778149
30
0.000000
70
32
0
VERTEX
8
ступица_кожух_6
10
84.204812
20
-88.203570
30
0.000000
70
32
0
VERTEX
8
ступица_кожух_6
10
84.889425
20
-87.659406
30
0.000000
70
32
0
VERTEX
8
ступица_кожух_6
10
85.593890
20
-87.146838
30
0.000000
70
32
0
VERTEX
8
ступица_кожух_6
10
86.316041
20
-86.666856
30
0.000000
70
32
0
VERTEX
8
ступица_кожух_6
10
87.053656
20
-86.220258
30
0.000000
70
32
0
VERTEX
8
ступица_кожух_6
10
87.790972
20
-85.814712
30
0.000000
70
32
0
VERTEX
8
ступица_кожух_6
10
88.538880
20
-85.442331
30
0.000000
70
32
0
VERTEX
8
ступица_кожух_6
10
89.295241
20
-85.103321
30
0.000000
70
32
0
VERTEX
8
ступица_кожух_6
10
90.057935
20
-84.797712
30
0.000000
70
32
0
VERTEX
8
ступица_кожух_6
10
90.840568
20
-84.520151
30
0.000000
70
32
0
VERTEX
8
ступица_кожух_6
10
91.625489
20
-84.276906
30
0.000000
70
32
0
VERTEX
8
ступица_кожух_6
10
92.410628
20
-84.067498
30
0.000000
70
32
0
VERTEX
8
ступица_кожух_6
10
93.194004
20
-83.891298
30
0.000000
70
32
0
VERTEX
8
ступица_кожух_6
10
93.973739
20
-83.747543
30
0.000000
70
32
0
VERTEX
8
ступица_кожух_6
10
94.748064
20
-83.635348
30
0.000000
70
32
0
VERTEX
8
ступица_кожух_6
10
95.515328
20
-83.553721
30
0.000000
70
32
0
SEQEND
0
POLYLINE
8
ступица_кожух_7
66
1
70
8
71
3
0
VERTEX
8
ступица_кожух_7
10
23.571135
20
-122.800000
30
0.000000
70
32
0
VERTEX
8
ступица_кожух_7
10
20.451299
20
-122.800000
30
0.000000
70
32
0
VERTEX
8
ступица_кожух_7
10
18.000000
20
-122.800000
30
0.000000
70
32
0
SEQEND
0
POLYLINE
8
ступица_кожух_8
66
1
70
8
71
3
0
VERTEX
8
ступица_кожух_8
10
18.000000
20
-56.700000
30
0.000000
70
32
0
VERTEX
8
ступица_кожух_8
10
18.000000
20
-24.948000
30
0.000000
70
32
0
VERTEX
8
ступица_кожух_8
10
18.000000
20
0.000000
30
0.000000
70
32
0
SEQEND
0
POLYLINE
8
ступица_кожух_9
66
1
70
8
71
3
0
VERTEX
8
ступица_кожух_9
10
162.500000
20
-42.700000
30
0.000000
70
32
0
VERTEX
8
ступица_кожух_9
10
162.500000
20
-46.732000
30
0.000000
70
32
0
VERTEX
8
ступица_кожух_9
10
162.500000
20
-49.900000
30
0.000000
70
32
0
SEQEND
0
POLYLINE
8
ступица_кожух_10
66
1
70
8
71
3
0
VERTEX
8
ступица_кожух_10
10
34.400000
20
0.000000
30
0.000000
70
32
0
VERTEX
8
ступица_кожух_10
10
34.400000
20
-19.936000
30
0.000000
70
32
0
VERTEX
8
ступица_кожух_10
10
34.400000
20
-35.600000
30
0.000000
70
32
0
SEQEND
0
POLYLINE
8
ступица_кожух_11
66
1
70
8
71
3
0
VERTEX
8
ступица_кожух_11
10
69.800000
20
1.200000
30
0.000000
70
32
0
VERTEX
8
ступица_кожух_11
10
73.384000
20
1.200000
30
0.000000
70
32
0
VERTEX
8
ступица_кожух_11
10
76.200000
20
1.200000
30
0.000000
70
32
0
SEQEND
0
POLYLINE
8
ступица_кожух_12
66
1
70
8
71
3
0
VERTEX
8
ступица_кожух_12
10
34.400000
20
-35.600000
30
0.000000
70
32
0
VERTEX
8
ступица_кожух_12
10
54.224000
20
-35.600000
30
0.000000
70
32
0
VERTEX
8
ступица_кожух_12
10
69.800000
20
-35.600000
30
0.000000
70
32
0
SEQEND
0
POLYLINE
8
ступица_кожух_13
66
1
70
8
71
3
0
VERTEX
8
ступица_кожух_13
10
30.000000
20
-60.500000
30
0.000000
70
32
0
VERTEX
8
ступица_кожух_13
10
40.080000
20
-60.500000
30
0.000000
70
32
0
VERTEX
8
ступица_кожух_13
10
48.000000
20
-60.500000
30
0.000000
70
32
0
SEQEND
0
POLYLINE
8
ступица_кожух_14
66
1
70
8
71
37
0
VERTEX
8
ступица_кожух_14
10
79.400000
20
-25.218050
30
0.000000
70
32
0
VERTEX
8
ступица_кожух_14
10
79.410594
20
-25.742760
30
0.000000
70
32
0
VERTEX
8
ступица_кожух_14
10
79.443006
20
-26.274603
30
0.000000
70
32
0
VERTEX
8
ступица_кожух_14
10
79.498132
20
-26.812355
30
0.000000
70
32
0
VERTEX
8
ступица_кожух_14
10
79.576787
20
-27.354683
30
0.000000
70
32
0
VERTEX
8
ступица_кожух_14
10
79.679689
20
-27.900154
30
0.000000
70
32
0
VERTEX
8
ступица_кожух_14
10
79.807449
20
-28.447240
30
0.000000
70
32
0
VERTEX
8
ступица_кожух_14
10
79.951119
20
-28.963094
30
0.000000
70
32
0
VERTEX
8
ступица_кожух_14
10
80.117623
20
-29.477537
30
0.000000
70
32
0
VERTEX
8
ступица_кожух_14
10
80.307151
20
-29.989108
30
0.000000
70
32
0
VERTEX
8
ступица_кожух_14
10
80.519766
20
-30.496311
30
0.000000
70
32
0
VERTEX
8
ступица_кожух_14
10
80.755407
20
-30.997623
30
0.000000
70
32
0
VERTEX
8
ступица_кожух_14
10
81.013881
20
-31.491510
30
0.000000
70
32
0
VERTEX
8
ступица_кожух_14
10
81.294861
20
-31.976443
30
0.000000
70
32
0
VERTEX
8
ступица_кожух_14
10
81.597883
20
-32.450910
30
0.000000
70
32
0
VERTEX
8
ступица_кожух_14
10
81.922350
20
-32.913429
30
0.000000
70
32
0
VERTEX
8
ступица_кожух_14
10
82.267536
20
-33.362568
30
0.000000
70
32
0
VERTEX
8
ступица_кожух_14
10
82.625898
20
-33.789335
30
0.000000
70
32
0
VERTEX
8
ступица_кожух_14
10
83.002499
20
-34.200643
30
0.000000
70
32
0
VERTEX
8
ступица_кожух_14
10
83.396315
20
-34.595344
30
0.000000
70
32
0
VERTEX
8
ступица_кожух_14
10
83.806226
20
-34.972385
30
0.000000
70
32
0
VERTEX
8
ступица_кожух_14
10
84.238885
20
-35.337151
30
0.000000
70
32
0
VERTEX
8
ступица_кожух_14
10
84.685638
20
-35.681731
30
0.000000
70
32
0
VERTEX
8
ступица_кожух_14
10
85.145077
20
-36.005362
30
0.000000
70
32
0
VERTEX
8
ступица_кожух_14
10
85.615742
20
-36.307407
30
0.000000
70
32
0
VERTEX
8
ступица_кожух_14
10
86.096142
20
-36.587367
30
0.000000
70
32
0
VERTEX
8
ступица_кожух_14
10
86.575973
20
-36.840473
30
0.000000
70
32
0
VERTEX
8
ступица_кожух_14
10
87.062296
20
-37.071696
30
0.000000
70
32
0
VERTEX
8
ступица_кожух_14
10
87.553680
20
-37.280935
30
0.000000
70
32
0
VERTEX
8
ступица_кожух_14
10
88.048714
20
-37.468205
30
0.000000
70
32
0
VERTEX
8
ступица_кожух_14
10
88.556181
20
-37.636788
30
0.000000
70
32
0
VERTEX
8
ступица_кожух_14
10
89.064591
20
-37.782884
30
0.000000
70
32
0
VERTEX
8
ступица_кожух_14
10
89.572578
20
-37.906851
30
0.000000
70
32
0
VERTEX
8
ступица_кожух_14
10
90.078839
20
-38.009149
30
0.000000
70
32
0
VERTEX
8
ступица_кожух_14
10
90.582144
20
-38.090323
30
0.000000
70
32
0
VERTEX
8
ступица_кожух_14
10
91.081340
20
-38.150998
30
0.000000
70
32
0
VERTEX
8
ступица_кожух_14
10
91.575355
20
-38.191868
30
0.000000
70
32
0
SEQEND
0
POLYLINE
8
ступица_кожух_15
66
1
70
8
71
3
0
VERTEX
8
ступица_кожух_15
10
67.500000
20
-104.656508
30
0.000000
70
32
0
VERTEX
8
ступица_кожух_15
10
67.500000
20
-114.816863
30
0.000000
70
32
0
VERTEX
8
ступица_кожух_15
10
67.500000
20
-122.800000
30
0.000000
70
32
0
SEQEND
0
POLYLINE
8
ступица_кожух_16
66
1
70
8
71
3
0
VERTEX
8
ступица_кожух_16
10
18.000000
20
0.000000
30
0.000000
70
32
0
VERTEX
8
ступица_кожух_16
10
27.184000
20
0.000000
30
0.000000
70
32
0
VERTEX
8
ступица_кожух_16
10
34.400000
20
0.000000
30
0.000000
70
32
0
SEQEND
0
POLYLINE
8
ступица_кожух_17
66
1
70
8
71
3
0
VERTEX
8
ступица_кожух_17
10
162.500000
20
-72.900000
30
0.000000
70
32
0
VERTEX
8
ступица_кожух_17
10
162.500000
20
-75.588000
30
0.000000
70
32
0
VERTEX
8
ступица_кожух_17
10
162.500000
20
-77.700000
30
0.000000
70
32
0
SEQEND
0
POLYLINE
8
ступица_кожух_18
66
1
70
8
71
3
0
VERTEX
8
ступица_кожух_18
10
30.000000
20
-56.700000
30
0.000000
70
32
0
VERTEX
8
ступица_кожух_18
10
30.000000
20
-58.828000
30
0.000000
70
32
0
VERTEX
8
ступица_кожух_18
10
30.000000
20
-60.500000
30
0.000000
70
32
0
SEQEND
0
POLYLINE
8
ступица_кожух_19
66
1
70
8
71
3
0
VERTEX
8
ступица_кожух_19
10
162.500000
20
-77.700000
30
0.000000
70
32
0
VERTEX
8
ступица_кожух_19
10
124.988584
20
-80.978084
30
0.000000
70
32
0
VERTEX
8
ступица_кожух_19
10
95.515328
20
-83.553721
30
0.000000
70
32
0
SEQEND
0
POLYLINE
8
ступица_кожух_20
66
1
70
8
71
3
0
VERTEX
8
ступица_кожух_20
10
86.651705
20
-47.777685
30
0.000000
70
32
0
VERTEX
8
ступица_кожух_20
10
129.126750
20
-48.966181
30
0.000000
70
32
0
VERTEX
8
ступица_кожух_20
10
162.500000
20
-49.900000
30
0.000000
70
32
0
SEQEND
0
POLYLINE
8
ступица_кожух_21
66
1
70
8
71
27
0
VERTEX
8
ступица_кожух_21
10
48.000000
20
-60.500000
30
0.000000
70
32
0
VERTEX
8
ступица_кожух_21
10
46.528972
20
-61.687113
30
0.000000
70
32
0
VERTEX
8
ступица_кожух_21
10
45.085397
20
-62.925878
30
0.000000
70
32
0
VERTEX
8
ступица_кожух_21
10
43.671864
20
-64.215453
30
0.000000
70
32
0
VERTEX
8
ступица_кожух_21
10
42.290939
20
-65.554834
30
0.000000
70
32
0
VERTEX
8
ступица_кожух_21
10
40.945145
20
-66.942847
30
0.000000
70
32
0
VERTEX
8
ступица_кожух_21
10
39.659974
20
-68.352114
30
0.000000
70
32
0
VERTEX
8
ступица_кожух_21
10
38.413357
20
-69.805576
30
0.000000
70
32
0
VERTEX
8
ступица_кожух_21
10
37.207503
20
-71.301662
30
0.000000
70
32
0
VERTEX
8
ступица_кожух_21
10
36.044534
20
-72.838657
30
0.000000
70
32
0
VERTEX
8
ступица_кожух_21
10
34.718764
20
-74.719174
30
0.000000
70
32
0
VERTEX
8
ступица_кожух_21
10
33.459854
20
-76.651668
30
0.000000
70
32
0
VERTEX
8
ступица_кожух_21
10
32.270779
20
-78.632530
30
0.000000
70
32
0
VERTEX
8
ступица_кожух_21
10
31.154250
20
-80.657926
30
0.000000
70
32
0
VERTEX
8
ступица_кожух_21
10
30.112695
20
-82.723825
30
0.000000
70
32
0
VERTEX
8
ступица_кожух_21
10
29.148238
20
-84.826027
30
0.000000
70
32
0
VERTEX
8
ступица_кожух_21
10
28.262690
20
-86.960188
30
0.000000
70
32
0
VERTEX
8
ступица_кожух_21
10
27.457533
20
-89.121853
30
0.000000
70
32
0
VERTEX
8
ступица_кожух_21
10
26.733913
20
-91.306484
30
0.000000
70
32
0
VERTEX
8
ступица_кожух_21
10
26.092639
20
-93.509493
30
0.000000
70
32
0
VERTEX
8
ступица_кожух_21
10
25.534179
20
-95.726274
30
0.000000
70
32
0
VERTEX
8
ступица_кожух_21
10
25.058661
20
-97.952231
30
0.000000
70
32
0
VERTEX
8
ступица_кожух_21
10
24.686106
20
-100.055304
30
0.000000
70
32
0
VERTEX
8
ступица_кожух_21
10
24.386675
20
-102.158727
30
0.000000
70
32
0
VERTEX
8
ступица_кожух_21
10
24.159689
20
-104.258821
30
0.000000
70
32
0
VERTEX
8
ступица_кожух_21
10
24.004231
20
-106.351998
30
0.000000
70
32
0
VERTEX
8
ступица_кожух_21
10
23.919162
20
-108.434787
30
0.000000
70
32
0
SEQEND
0
POLYLINE
8
ступица_кожух_22
66
1
70
8
71
25
0
VERTEX
8
ступица_кожух_22
10
48.000000
20
-60.500000
30
0.000000
70
32
0
VERTEX
8
ступица_кожух_22
10
49.456370
20
-59.395824
30
0.000000
70
32
0
VERTEX
8
ступица_кожух_22
10
50.953023
20
-58.331470
30
0.000000
70
32
0
VERTEX
8
ступица_кожух_22
10
52.488358
20
-57.309036
30
0.000000
70
32
0
VERTEX
8
ступица_кожух_22
10
54.060630
20
-56.330533
30
0.000000
70
32
0
VERTEX
8
ступица_кожух_22
10
55.667962
20
-55.397878
30
0.000000
70
32
0
VERTEX
8
ступица_кожух_22
10
57.308346
20
-54.512879
30
0.000000
70
32
0
VERTEX
8
ступица_кожух_22
10
58.979655
20
-53.677228
30
0.000000
70
32
0
VERTEX
8
ступица_кожух_22
10
60.536942
20
-52.955901
30
0.000000
70
32
0
VERTEX
8
ступица_кожух_22
10
62.116532
20
-52.278458
30
0.000000
70
32
0
VERTEX
8
ступица_кожух_22
10
63.716556
20
-51.645901
30
0.000000
70
32
0
VERTEX
8
ступица_кожух_22
10
65.335090
20
-51.059123
30
0.000000
70
32
0
VERTEX
8
ступица_кожух_22
10
66.970157
20
-50.518909
30
0.000000
70
32
0
VERTEX
8
ступица_кожух_22
10
68.619738
20
-50.025929
30
0.000000
70
32
0
VERTEX
8
ступица_кожух_22
10
70.281782
20
-49.580733
30
0.000000
70
32
0
VERTEX
8
ступица_кожух_22
10
71.954208
20
-49.183757
30
0.000000
70
32
0
VERTEX
8
ступица_кожух_22
10
73.634921
20
-48.835312
30
0.000000
70
32
0
VERTEX
8
ступица_кожух_22
10
75.321816
20
-48.535590
30
0.000000
70
32
0
VERTEX
8
ступица_кожух_22
10
77.012789
20
-48.284663
30
0.000000
70
32
0
VERTEX
8
ступица_кожух_22
10
78.705746
20
-48.082481
30
0.000000
70
32
0
VERTEX
8
ступица_кожух_22
10
80.301910
20
-47.936352
30
0.000000
70
32
0
VERTEX
8
ступица_кожух_22
10
81.896267
20
-47.833174
30
0.000000
70
32
0
VERTEX
8
ступица_кожух_22
10
83.487122
20
-47.772624
30
0.000000
70
32
0
VERTEX
8
ступица_кожух_22
10
85.072810
20
-47.754293
30
0.000000
70
32
0
VERTEX
8
ступица_кожух_22
10
86.651705
20
-47.777685
30
0.000000
70
32
0
SEQEND
0
POLYLINE
8
ступица_кожух_23
66
1
70
8
71
3
0
VERTEX
8
ступица_кожух_23
10
67.500000
20
-122.800000
30
0.000000
70
32
0
VERTEX
8
ступица_кожух_23
10
72.708000
20
-122.800000
30
0.000000
70
32
0
VERTEX
8
ступица_кожух_23
10
76.800000
20
-122.800000
30
0.000000
70
32
0
SEQEND
0
POLYLINE
8
ступица_кожух_24
66
1
70
8
71
3
0
VERTEX
8
ступица_кожух_24
10
23.919162
20
-108.434787
30
0.000000
70
32
0
VERTEX
8
ступица_кожух_24
10
23.724267
20
-116.479306
30
0.000000
70
32
0
VERTEX
8
ступица_кожух_24
10
23.571135
20
-122.800000
30
0.000000
70
32
0
SEQEND
0
POLYLINE
8
ступица_кожух_25
66
1
70
8
71
3
0
VERTEX
8
ступица_кожух_25
10
76.200000
20
1.200000
30
0.000000
70
32
0
VERTEX
8
ступица_кожух_25
10
76.200000
20
-12.576000
30
0.000000
70
32
0
VERTEX
8
ступица_кожух_25
10
76.200000
20
-23.400000
30
0.000000
70
32
0
SEQEND
0
POLYLINE
8
ступица_кожух_26
66
1
70
8
71
37
0
VERTEX
8
ступица_кожух_26
10
96.694587
20
-74.667321
30
0.000000
70
32
0
VERTEX
8
ступица_кожух_26
10
95.460979
20
-74.725881
30
0.000000
70
32
0
VERTEX
8
ступица_кожух_26
10
94.211183
20
-74.837325
30
0.000000
70
32
0
VERTEX
8
ступица_кожух_26
10
92.948245
20
-75.003826
30
0.000000
70
32
0
VERTEX
8
ступица_кожух_26
10
91.675480
20
-75.227356
30
0.000000
70
32
0
VERTEX
8
ступица_кожух_26
10
90.396461
20
-75.509643
30
0.000000
70
32
0
VERTEX
8
ступица_кожух_26
10
89.114999
20
-75.852137
30
0.000000
70
32
0
VERTEX
8
ступица_кожух_26
10
87.908139
20
-76.231234
30
0.000000
70
32
0
VERTEX
8
ступица_кожух_26
10
86.706205
20
-76.665545
30
0.000000
70
32
0
VERTEX
8
ступица_кожух_26
10
85.512835
20
-77.155455
30
0.000000
70
32
0
VERTEX
8
ступица_кожух_26
10
84.331760
20
-77.701036
30
0.000000
70
32
0
VERTEX
8
ступица_кожух_26
10
83.166763
20
-78.302033
30
0.000000
70
32
0
VERTEX
8
ступица_кожух_26
10
82.021650
20
-78.957856
30
0.000000
70
32
0
VERTEX
8
ступица_кожух_26
10
80.900209
20
-79.667572
30
0.000000
70
32
0
VERTEX
8
ступица_кожух_26
10
79.806174
20
-80.429900
30
0.000000
70
32
0
VERTEX
8
ступица_кожух_26
10
78.743185
20
-81.243223
30
0.000000
70
32
0
VERTEX
8
ступица_кожух_26
10
77.714750
20
-82.105590
30
0.000000
70
32
0
VERTEX
8
ступица_кожух_26
10
76.741546
20
-82.998101
30
0.000000
70
32
0
VERTEX
8
ступица_кожух_26
10
75.807864
20
-83.933302
30
0.000000
70
32
0
VERTEX
8
ступица_кожух_26
10
74.916454
20
-84.908509
30
0.000000
70
32
0
VERTEX
8
ступица_кожух_26
10
74.069817
20
-85.920805
30
0.000000
70
32
0
VERTEX
8
ступица_кожух_26
10
73.256094
20
-86.986392
30
0.000000
70
32
0
VERTEX
8
ступица_кожух_26
10
72.493142
20
-88.083727
30
0.000000
70
32
0
VERTEX
8
ступица_кожух_26
10
71.782680
20
-89.209195
30
0.000000
70
32
0
VERTEX
8
ступица_кожух_26
10
71.126085
20
-90.359074
30
0.000000
70
32
0
VERTEX
8
ступица_кожух_26
10
70.524390
20
-91.529572
30
0.000000
70
32
0
VERTEX
8
ступица_кожух_26
10
69.987542
20
-92.695543
30
0.000000
70
32
0
VERTEX
8
ступица_кожух_26
10
69.504646
20
-93.874109
30
0.000000
70
32
0
VERTEX
8
ступица_кожух_26
10
69.075721
20
-95.061697
30
0.000000
70
32
0
VERTEX
8
ступица_кожух_26
10
68.700495
20
-96.254811
30
0.000000
70
32
0
VERTEX
8
ступица_кожух_26
10
68.372385
20
-97.474444
30
0.000000
70
32
0
VERTEX
8
ступица_кожух_26
10
68.098735
20
-98.692817
30
0.000000
70
32
0
VERTEX
8
ступица_кожух_26
10
67.878411
20
-99.906617
30
0.000000
70
32
0
VERTEX
8
ступица_кожух_26
10
67.710044
20
-101.112712
30
0.000000
70
32
0
VERTEX
8
ступица_кожух_26
10
67.592053
20
-102.308169
30
0.000000
70
32
0
VERTEX
8
ступица_кожух_26
10
67.522677
20
-103.490267
30
0.000000
70
32
0
VERTEX
8
ступица_кожух_26
10
67.500000
20
-104.656508
30
0.000000
70
32
0
SEQEND
0
POLYLINE
8
ступица_кожух_27
66
1
70
8
71
3
0
VERTEX
8
ступица_кожух_27
10
76.800000
20
-122.800000
30
0.000000
70
32
0
VERTEX
8
ступица_кожух_27
10
76.800000
20
-112.258498
30
0.000000
70
32
0
VERTEX
8
ступица_кожух_27
10
76.800000
20
-103.975889
30
0.000000
70
32
0
SEQEND
0
POLYLINE
8
ступица_кожух_28
66
1
70
8
71
3
0
VERTEX
8
ступица_кожух_28
10
162.500000
20
-42.700000
30
0.000000
70
32
0
VERTEX
8
ступица_кожух_28
10
122.782199
20
-40.175446
30
0.000000
70
32
0
VERTEX
8
ступица_кожух_28
10
91.575355
20
-38.191868
30
0.000000
70
32
0
SEQEND
0
POLYLINE
8
ступица_кожух_29
66
1
70
8
71
3
0
VERTEX
8
ступица_кожух_29
10
18.000000
20
-56.700000
30
0.000000
70
32
0
VERTEX
8
ступица_кожух_29
10
24.720000
20
-56.700000
30
0.000000
70
32
0
VERTEX
8
ступица_кожух_29
10
30.000000
20
-56.700000
30
0.000000
70
32
0
SEQEND
0
ENDSEC
0
EOF
